<svg width="667" height="200" viewBox="0 0 667 200" fill="none" xmlns="http://www.w3.org/2000/svg">
<path d="M10.263 156.315C2.16676 153.251 -0.14003 147.981 0.00647556 139.893C0.503883 112.432 0.356817 84.956 0.113807 57.4888C0.0598965 51.3983 2.1146 47.7798 7.47184 44.7718C32.3466 30.8048 57.0653 16.5562 81.6954 2.16097C86.3663 -0.568967 89.9806 -0.822655 94.8428 2.03339C119.669 16.6162 144.694 30.8636 169.749 45.0508C173.906 47.4043 175.834 50.1441 175.842 55.1247C175.885 84.1668 176.129 113.21 176.597 142.249C176.695 148.303 174.692 151.857 169.257 154.911C144.16 169.014 119.277 183.501 94.4647 198.102C89.9394 200.765 86.5468 200.557 82.0588 197.908C58.4124 183.948 34.5552 170.345 10.263 156.315ZM84.7974 116.282C84.4604 114.008 85.4123 111.442 83.3446 109.557C67.5435 113.901 64.6919 117.457 64.7276 132.717C64.7319 134.578 64.9239 136.457 64.7311 138.297C64.1884 143.475 66.5091 146.72 70.9474 149.208C82.5386 155.704 93.9655 162.493 105.499 169.094C107.24 170.091 108.977 171.76 111.294 170.399C114.162 152.939 114.029 150.767 99.2198 143.739C87.3291 138.096 82.3375 130.419 84.7974 116.282ZM92.3455 72.7613C92.6739 78.6994 91.6114 84.752 93.1297 90.7525C110.094 85.3493 111.734 82.4914 112.377 66.2128C112.715 57.6399 110.252 52.3148 102.335 48.6748C95.1274 45.361 88.5767 40.6467 81.572 36.8535C76.3618 34.0322 71.6072 30.1754 65.5792 28.6817C62.898 47.9297 62.9019 47.9229 78.6616 56.8626C81.4343 58.4354 84.0893 60.2295 86.9238 61.6762C90.9353 63.7236 92.9006 66.7674 92.3455 72.7613ZM25.5323 90.6697C30.4505 94.541 35.2078 93.9128 40.2232 90.6C44.6654 87.6658 49.6707 85.5532 53.9771 82.4524C58.6238 79.1066 62.539 79.5331 67.1236 82.4959C71.9907 85.6413 77.2841 88.1273 82.42 90.9169C87.8461 78.6136 85.5553 71.0285 75.1453 65.1391C72.1285 63.4323 69.0678 61.7722 66.2104 59.8222C62.4202 57.2357 58.9295 57.4788 55.0716 59.7829C46.6031 64.8404 37.8406 69.4184 29.4982 74.6692C24.9355 77.541 19.107 78.8013 15.9698 83.884C18.1179 87.3748 21.8209 88.0302 25.5323 90.6697ZM118.748 119.734C114.889 121.354 112.151 118.765 109.185 117.14C104.158 114.387 99.5289 110.788 93.7665 109.396C89.6933 124.758 91.1282 128.404 103.709 135.63C106.709 137.353 109.687 139.114 112.696 140.821C114.333 141.749 116.096 142.742 117.958 141.688C132.456 133.487 146.919 125.226 161.642 116.842C149.433 105.071 145.697 104.455 132.874 111.623C128.46 114.09 124.121 116.689 118.748 119.734ZM108.281 93.5817C105.477 95.846 101.444 96.5584 99.6727 100.183C113.101 111.393 114.99 111.607 128.936 103.585C129.627 103.188 130.271 102.675 131.004 102.388C137.558 99.8201 139.954 95.2605 139.599 88.0876C139.021 76.4181 139.499 64.6988 139.391 53.0019C139.368 50.5065 140.405 47.6355 137.84 45.6443C122.496 50.6379 121.022 52.5906 121.024 67.8474C121.024 69.4426 120.811 71.0721 121.061 72.6274C122.669 82.6515 119.155 89.6449 108.281 93.5817ZM37.3891 111.238C37.3891 125.682 37.3891 140.126 37.3891 155.208C55.5356 148.34 56.0626 147.61 56.0626 131.253C56.0626 127.519 56.3023 123.768 56.0157 120.057C55.6361 115.14 57.7443 112.172 61.9734 109.844C67.2512 106.939 72.9013 104.49 77.4251 100.188C64.3106 88.5491 62.1136 88.2528 48.3106 96.0387C46.6858 96.9552 45.1403 98.0325 43.4589 98.8248C38.7684 101.035 36.7242 104.636 37.3891 111.238ZM54.7798 49.1359C57.2368 42.4336 55.8878 35.6912 55.501 27.6103C42.6329 35.0269 30.7109 41.8889 18.7981 48.7669C8.44579 54.744 6.05166 62.4525 11.1178 75.1057C25.4456 66.7061 39.6795 58.3616 54.7798 49.1359ZM79.927 164.363C75.0796 161.585 70.2474 158.78 65.3776 156.042C63.3332 154.892 61.2277 152.99 58.7618 154.467C53.6201 157.547 47.7575 159.573 42.6867 164.849C54.695 171.817 66.0636 178.524 77.5395 185.043C89.6385 191.915 94.0131 191.102 105.516 179.634C97.1751 174.655 89.0533 169.808 79.927 164.363ZM89.1278 9.57327C81.8691 10.8038 76.7539 15.6329 69.626 19.6551C82.7443 27.1052 94.348 33.5951 105.852 40.2573C116.927 46.6714 124.125 45.3841 133.297 34.5716C118.878 26.2897 104.57 18.0722 89.1278 9.57327ZM157.045 129.724C148.738 134.458 140.407 139.152 132.128 143.938C120.114 150.883 118.162 156.326 122.797 171.45C134.185 164.865 145.406 158.431 156.573 151.905C168.268 145.071 170.439 138.703 165.667 124.957C163.097 126.397 160.584 127.805 157.045 129.724ZM9.10593 129.863C9.03865 146.62 12.6936 151.608 27.6107 154.168C27.6107 140.51 27.5964 126.975 27.615 113.44C27.6313 101.591 22.4544 95.8904 9.10409 94.0354C9.10409 105.531 9.10409 116.916 9.10593 129.863ZM148.54 61.1077C148.772 71.5043 149.124 81.9005 149.165 92.2979C149.178 95.4638 149.454 98.1329 152.524 99.7578C156.906 102.077 161.28 104.413 167.226 107.576C167.226 92.9226 167.269 79.9326 167.215 66.943C167.157 52.8431 163.684 48.6952 148.516 45.3733C148.516 50.2945 148.516 55.0173 148.54 61.1077Z" fill="black"/>
<path d="M243.89 90.26C242.21 88.0667 240.32 86.2933 238.22 84.94C236.167 83.54 233.717 82.84 230.87 82.84C228.864 82.84 226.974 83.2133 225.2 83.96C223.474 84.7067 221.957 85.7333 220.65 87.04C219.39 88.3 218.387 89.7933 217.64 91.52C216.894 93.2467 216.52 95.1133 216.52 97.12C216.52 99.1267 216.894 100.993 217.64 102.72C218.387 104.447 219.39 105.963 220.65 107.27C221.957 108.53 223.474 109.533 225.2 110.28C226.974 110.98 228.864 111.33 230.87 111.33C233.717 111.33 236.144 110.84 238.15 109.86C240.157 108.88 241.65 107.713 242.63 106.36V103.56H224.71V95.51H251.1V109.58C248.674 112.94 245.71 115.6 242.21 117.56C238.757 119.52 234.977 120.5 230.87 120.5C227.604 120.5 224.547 119.893 221.7 118.68C218.854 117.467 216.357 115.81 214.21 113.71C212.11 111.61 210.43 109.137 209.17 106.29C207.957 103.443 207.35 100.387 207.35 97.12C207.35 93.8533 207.957 90.7967 209.17 87.95C210.43 85.0567 212.11 82.56 214.21 80.46C216.357 78.3133 218.854 76.6333 221.7 75.42C224.547 74.2067 227.604 73.6 230.87 73.6C234.464 73.6 238.01 74.4633 241.51 76.19C245.01 77.87 248.02 80.5067 250.54 84.1L243.89 90.26ZM298.14 120.5H274.34V73.6H283.51V111.33H298.14V120.5ZM317.546 120.5L331.406 73.6H340.856L355.346 120.5H345.966L343.796 112.73H329.026L326.996 120.5H317.546ZM331.056 105.24H341.696L336.306 85.64L331.056 105.24ZM393.612 120.5L384.582 90.89V120.5H376.532V73.6H386.542L398.022 108.53L410.062 73.6H419.932V120.5H411.462V90.96L402.712 120.5H393.612ZM481.666 97.12C481.666 95.1133 481.269 93.2467 480.476 91.52C479.729 89.7933 478.703 88.3 477.396 87.04C476.089 85.7333 474.549 84.7067 472.776 83.96C471.049 83.2133 469.206 82.84 467.246 82.84C465.239 82.84 463.349 83.2133 461.576 83.96C459.849 84.7067 458.333 85.7333 457.026 87.04C455.719 88.3 454.693 89.7933 453.946 91.52C453.199 93.2467 452.826 95.1133 452.826 97.12C452.826 99.1267 453.199 100.993 453.946 102.72C454.693 104.447 455.719 105.963 457.026 107.27C458.333 108.53 459.849 109.533 461.576 110.28C463.349 110.98 465.239 111.33 467.246 111.33C469.206 111.33 471.049 110.98 472.776 110.28C474.549 109.533 476.089 108.53 477.396 107.27C478.703 105.963 479.729 104.447 480.476 102.72C481.269 100.993 481.666 99.1267 481.666 97.12ZM490.766 97.12C490.766 100.387 490.159 103.443 488.946 106.29C487.733 109.137 486.053 111.61 483.906 113.71C481.806 115.81 479.309 117.467 476.416 118.68C473.569 119.893 470.513 120.5 467.246 120.5C463.933 120.5 460.853 119.893 458.006 118.68C455.159 117.467 452.663 115.81 450.516 113.71C448.416 111.61 446.759 109.137 445.546 106.29C444.333 103.443 443.726 100.387 443.726 97.12C443.726 93.8533 444.333 90.7967 445.546 87.95C446.759 85.0567 448.416 82.56 450.516 80.46C452.663 78.3133 455.159 76.6333 458.006 75.42C460.853 74.2067 463.933 73.6 467.246 73.6C470.513 73.6 473.569 74.2067 476.416 75.42C479.309 76.6333 481.806 78.3133 483.906 80.46C486.053 82.56 487.733 85.0567 488.946 87.95C490.159 90.7967 490.766 93.8533 490.766 97.12ZM523.43 73.6V102.16C523.43 103.42 523.664 104.633 524.13 105.8C524.644 106.92 525.32 107.9 526.16 108.74C527 109.58 527.98 110.257 529.1 110.77C530.22 111.237 531.41 111.47 532.67 111.47C534.304 111.47 535.704 111.143 536.87 110.49C538.084 109.837 539.064 108.95 539.81 107.83C540.557 106.71 541.094 105.427 541.42 103.98C541.794 102.533 541.98 101.017 541.98 99.43V73.6H551.15V102.16C551.15 104.727 550.66 107.13 549.68 109.37C548.747 111.61 547.44 113.57 545.76 115.25C544.08 116.93 542.12 118.26 539.88 119.24C537.64 120.173 535.237 120.64 532.67 120.64C530.104 120.64 527.7 120.173 525.46 119.24C523.22 118.26 521.284 116.93 519.65 115.25C518.017 113.57 516.71 111.61 515.73 109.37C514.797 107.13 514.33 104.727 514.33 102.16V73.6H523.43ZM575.05 120.5V73.6H590.17C592.737 73.6 595.14 74.09 597.38 75.07C599.62 76.0033 601.557 77.31 603.19 78.99C604.87 80.67 606.177 82.6533 607.11 84.94C608.09 87.18 608.58 89.5833 608.58 92.15C608.58 95.37 607.834 98.31 606.34 100.97C604.894 103.583 602.91 105.707 600.39 107.34L608.93 120.5H598.57L591.85 110.35C591.57 110.397 591.29 110.42 591.01 110.42C590.73 110.42 590.45 110.42 590.17 110.42H584.15V120.5H575.05ZM584.15 101.32H590.17C591.43 101.32 592.62 101.087 593.74 100.62C594.86 100.107 595.84 99.43 596.68 98.59C597.52 97.75 598.174 96.7933 598.64 95.72C599.154 94.6 599.41 93.41 599.41 92.15C599.41 90.8433 599.154 89.63 598.64 88.51C598.174 87.3433 597.52 86.34 596.68 85.5C595.84 84.66 594.86 84.0067 593.74 83.54C592.62 83.0733 591.43 82.84 590.17 82.84H584.15V101.32ZM629.046 120.5L642.906 73.6H652.356L666.846 120.5H657.466L655.296 112.73H640.526L638.496 120.5H629.046ZM642.556 105.24H653.196L647.806 85.64L642.556 105.24Z" fill="black"/>
</svg>
